<?xml version="1.0" encoding="UTF-8" standalone="no"?>
<!DOCTYPE svg PUBLIC "-//W3C//DTD SVG 1.1//EN" "http://www.w3.org/Graphics/SVG/1.1/DTD/svg11.dtd">
<svg version="1.1" xmlns="http://www.w3.org/2000/svg" xmlns:xlink="http://www.w3.org/1999/xlink" preserveAspectRatio="xMidYMid meet" viewBox="0 0 64 64" width="64" height="64"><defs><path d="M32 0L64 32L32 64L0 32L32 0Z" id="bIvNpwkod"></path><clipPath id="clipbhSDzp0S8"><use xlink:href="#bIvNpwkod" opacity="1"></use></clipPath><path d="M18.66 8.45L18.66 13.11L16.56 13.11L16.56 32.74L33.47 13.11L31.33 13.11L31.33 8.45L45.84 8.45L45.84 13.11L10.85 55.96L5.88 55.96L5.88 13.11L3.89 13.11L3.89 8.45L18.66 8.45Z" id="aOf0P5glZ"></path><clipPath id="clipcRsNFbVJL"><use xlink:href="#aOf0P5glZ" opacity="1"></use></clipPath><path d="M34.3 8.45L34.3 13.11L32.2 13.11L32.2 32.74L49.11 13.11L46.96 13.11L46.96 8.45L61.48 8.45L61.48 13.11L26.49 55.96L21.52 55.96L21.52 13.11L19.53 13.11L19.53 8.45L34.3 8.45Z" id="b16G9ocOSG"></path><clipPath id="clipedXk1NxPw"><use xlink:href="#b16G9ocOSG" opacity="1"></use></clipPath><path d="M41.47 46.48L39.03 54.03L43.53 54.03L44.22 52.16L43.03 52.16L44.41 48.04L46.84 48.04L44.72 54.03L49.66 54.03L50.22 52.16L49.09 52.16L50.47 48.04L52.78 48.04L50.97 54.03L56.16 54.03L56.72 52.16L55.22 52.16L57.09 45.35L56.16 44.01L52.22 44.01L51.47 45.35L50.72 44.01L46.84 44.01L45.84 45.35L44.72 44.01L40.66 44.01L39.84 46.48L41.47 46.48Z" id="e1uddvtwxP"></path><path d="M35.06 46.08L33.78 46.08L34.35 44.01L39.26 44.01L37.05 52.16L38.29 52.16L37.63 54.03L32.95 54.03L35.06 46.08Z" id="dZ4VdSPpN"></path><path d="M36.94 39.39L40.23 39.39L39.42 42.73L36.1 42.73L36.94 39.39Z" id="dJlP0YQg0"></path></defs><g><g><g><use xlink:href="#bIvNpwkod" opacity="1" fill="#3ec979" fill-opacity="1"></use><g clip-path="url(#clipbhSDzp0S8)"><use xlink:href="#bIvNpwkod" opacity="1" fill-opacity="0" stroke="#1c6842" stroke-width="4" stroke-opacity="1"></use></g><g><filter id="shadow3085999" x="-9" y="-9" width="82" height="83" filterUnits="userSpaceOnUse" primitiveUnits="userSpaceOnUse"><feFlood></feFlood><feComposite in2="SourceAlpha" operator="out"></feComposite><feGaussianBlur stdDeviation="1"></feGaussianBlur><feOffset dx="0" dy="1" result="afterOffset"></feOffset><feFlood flood-color="#34cc7f" flood-opacity="0.8"></feFlood><feComposite in2="afterOffset" operator="in"></feComposite><feMorphology operator="dilate" radius="1"></feMorphology><feComposite in2="SourceAlpha" operator="in"></feComposite></filter><path d="M32 0L64 32L32 64L0 32L32 0Z" id="d1kVJDjDDL" fill="white" fill-opacity="1" filter="url(#shadow3085999)"></path></g></g><g><use xlink:href="#aOf0P5glZ" opacity="1" fill="#dbe7e0" fill-opacity="1"></use><g clip-path="url(#clipcRsNFbVJL)"><use xlink:href="#aOf0P5glZ" opacity="1" fill-opacity="0" stroke="#000000" stroke-width="2" stroke-opacity="1"></use></g><g><filter id="shadow3618792" x="-4.11" y="0.45" width="57.95" height="63.51" filterUnits="userSpaceOnUse" primitiveUnits="userSpaceOnUse"><feFlood></feFlood><feComposite in2="SourceAlpha" operator="out"></feComposite><feGaussianBlur stdDeviation="1"></feGaussianBlur><feOffset dx="0" dy="0" result="afterOffset"></feOffset><feFlood flood-color="#8a8a8a" flood-opacity="0.8"></feFlood><feComposite in2="afterOffset" operator="in"></feComposite><feMorphology operator="dilate" radius="1"></feMorphology><feComposite in2="SourceAlpha" operator="in"></feComposite></filter><path d="M18.66 8.45L18.66 13.11L16.56 13.11L16.56 32.74L33.47 13.11L31.33 13.11L31.33 8.45L45.84 8.45L45.84 13.11L10.85 55.96L5.88 55.96L5.88 13.11L3.89 13.11L3.89 8.45L18.66 8.45Z" id="btLR20Kpq" fill="white" fill-opacity="1" filter="url(#shadow3618792)"></path></g></g><g><use xlink:href="#b16G9ocOSG" opacity="1" fill="#dbe7e0" fill-opacity="1"></use><g clip-path="url(#clipedXk1NxPw)"><use xlink:href="#b16G9ocOSG" opacity="1" fill-opacity="0" stroke="#000000" stroke-width="2" stroke-opacity="1"></use></g><g><filter id="shadow4967477" x="11.53" y="0.45" width="57.95" height="63.51" filterUnits="userSpaceOnUse" primitiveUnits="userSpaceOnUse"><feFlood></feFlood><feComposite in2="SourceAlpha" operator="out"></feComposite><feGaussianBlur stdDeviation="1"></feGaussianBlur><feOffset dx="0" dy="0" result="afterOffset"></feOffset><feFlood flood-color="#8a8a8a" flood-opacity="0.8"></feFlood><feComposite in2="afterOffset" operator="in"></feComposite><feMorphology operator="dilate" radius="1"></feMorphology><feComposite in2="SourceAlpha" operator="in"></feComposite></filter><path d="M34.3 8.45L34.3 13.11L32.2 13.11L32.2 32.74L49.11 13.11L46.96 13.11L46.96 8.45L61.48 8.45L61.48 13.11L26.49 55.96L21.52 55.96L21.52 13.11L19.53 13.11L19.53 8.45L34.3 8.45Z" id="bFhr0urz" fill="white" fill-opacity="1" filter="url(#shadow4967477)"></path></g></g><g><use xlink:href="#e1uddvtwxP" opacity="1" fill="#dbe7e0" fill-opacity="1"></use><g><use xlink:href="#e1uddvtwxP" opacity="1" fill-opacity="0" stroke="#3f3f3f" stroke-width="1" stroke-opacity="1"></use></g></g><g><use xlink:href="#dZ4VdSPpN" opacity="1" fill="#dbe7e0" fill-opacity="1"></use><g><use xlink:href="#dZ4VdSPpN" opacity="1" fill-opacity="0" stroke="#3f3f3f" stroke-width="1" stroke-opacity="1"></use></g></g><g><use xlink:href="#dJlP0YQg0" opacity="1" fill="#dbe7e0" fill-opacity="1"></use><g><use xlink:href="#dJlP0YQg0" opacity="1" fill-opacity="0" stroke="#3f3f3f" stroke-width="1" stroke-opacity="1"></use></g></g></g></g></svg>