<?xml version="1.0" encoding="UTF-8" standalone="no"?>
<!DOCTYPE svg PUBLIC "-//W3C//DTD SVG 1.1//EN" "http://www.w3.org/Graphics/SVG/1.1/DTD/svg11.dtd">
<svg version="1.1" xmlns="http://www.w3.org/2000/svg" xmlns:xlink="http://www.w3.org/1999/xlink" preserveAspectRatio="xMidYMid meet" viewBox="0 0 96 96" width="96" height="96"><defs><path d="M96 48.31L48 96.31L0 48.31L48 0.31L96 48.31Z" id="aVApkDwj"></path><clipPath id="clipbGw9sCAXo"><use xlink:href="#aVApkDwj" opacity="1"></use></clipPath><path d="M27.99 19.67L24.84 19.67L24.84 49.11L50.21 19.67L47 19.67L47 12.68L68.76 12.68L68.76 19.67L16.27 83.94L8.82 83.94L8.82 19.67L5.84 19.67L5.84 12.68L27.99 12.68L27.99 19.67Z" id="a14UW4YMjb"></path><clipPath id="clipaxJdQEUQ9"><use xlink:href="#a14UW4YMjb" opacity="1"></use></clipPath><path d="M51.45 19.67L48.3 19.67L48.3 49.11L73.66 19.67L70.44 19.67L70.44 12.68L92.22 12.68L92.22 19.67L39.74 83.94L32.28 83.94L32.28 19.67L29.3 19.67L29.3 12.68L51.45 12.68L51.45 19.67Z" id="bez1JFb5r"></path><clipPath id="clipb2H74IgSLc"><use xlink:href="#bez1JFb5r" opacity="1"></use></clipPath><path d="M60.35 59.09L59.13 64.1L54.15 64.1L55.41 59.09L60.35 59.09Z" id="d3Ju5zVx3"></path><path d="M57.65 77.94L56.79 81.05L49.43 81.05L52.74 68.82L50.88 68.82L51.87 66.02L58.89 66.02L55.72 77.94L57.65 77.94Z" id="j4d7X9NE6"></path><path d="M58.55 81.05L65.3 81.05L66.33 78.24L64.55 78.24L66.61 72.06L70.26 72.06L67.08 81.05L74.49 81.05L75.33 78.24L73.64 78.24L75.71 72.06L79.17 72.06L76.46 81.05L84.24 81.05L85.08 78.24L82.83 78.24L85.64 68.03L84.24 66.02L78.33 66.02L77.21 68.03L76.08 66.02L70.26 66.02L68.76 68.03L67.08 66.02L60.99 66.02L59.76 69.72L62.21 69.72L58.55 81.05Z" id="dAGiV3da7"></path></defs><g><g><g><use xlink:href="#aVApkDwj" opacity="1" fill="#3ec979" fill-opacity="1"></use><g clip-path="url(#clipbGw9sCAXo)"><use xlink:href="#aVApkDwj" opacity="1" fill-opacity="0" stroke="#1ca100" stroke-width="4" stroke-opacity="1"></use></g><g><filter id="shadow2577365" x="-7" y="-6.69" width="110" height="111" filterUnits="userSpaceOnUse" primitiveUnits="userSpaceOnUse"><feFlood></feFlood><feComposite in2="SourceAlpha" operator="out"></feComposite><feGaussianBlur stdDeviation="0"></feGaussianBlur><feOffset dx="0" dy="-1" result="afterOffset"></feOffset><feFlood flood-color="#5a5959" flood-opacity="0.5"></feFlood><feComposite in2="afterOffset" operator="in"></feComposite><feMorphology operator="dilate" radius="1"></feMorphology><feComposite in2="SourceAlpha" operator="in"></feComposite></filter><path d="M96 48.31L48 96.31L0 48.31L48 0.31L96 48.31Z" id="bzGG0tOq3" fill="white" fill-opacity="1" filter="url(#shadow2577365)"></path></g></g><g><g><filter id="shadow4411592" x="-4.16" y="2.67" width="84.93" height="93.27" filterUnits="userSpaceOnUse" primitiveUnits="userSpaceOnUse"><feFlood></feFlood><feComposite in2="SourceAlpha" operator="in"></feComposite><feGaussianBlur stdDeviation="1"></feGaussianBlur><feOffset dx="2" dy="2" result="afterOffset"></feOffset><feFlood flood-color="#000000" flood-opacity="0.5"></feFlood><feComposite in2="afterOffset" operator="in"></feComposite><feMorphology operator="dilate" radius="1"></feMorphology><feComposite in2="SourceAlpha" operator="out"></feComposite></filter><path d="M27.99 19.67L24.84 19.67L24.84 49.11L50.21 19.67L47 19.67L47 12.68L68.76 12.68L68.76 19.67L16.27 83.94L8.82 83.94L8.82 19.67L5.84 19.67L5.84 12.68L27.99 12.68L27.99 19.67Z" id="h1pnT11GoO" fill="white" fill-opacity="1" filter="url(#shadow4411592)"></path></g><use xlink:href="#a14UW4YMjb" opacity="1" fill="#dbe7e0" fill-opacity="1"></use><g clip-path="url(#clipaxJdQEUQ9)"><use xlink:href="#a14UW4YMjb" opacity="1" fill-opacity="0" stroke="#2f2f2f" stroke-width="2" stroke-opacity="1"></use></g></g><g><g><filter id="shadow14637881" x="19.3" y="2.67" width="84.93" height="93.27" filterUnits="userSpaceOnUse" primitiveUnits="userSpaceOnUse"><feFlood></feFlood><feComposite in2="SourceAlpha" operator="in"></feComposite><feGaussianBlur stdDeviation="1"></feGaussianBlur><feOffset dx="2" dy="2" result="afterOffset"></feOffset><feFlood flood-color="#000000" flood-opacity="0.5"></feFlood><feComposite in2="afterOffset" operator="in"></feComposite><feMorphology operator="dilate" radius="1"></feMorphology><feComposite in2="SourceAlpha" operator="out"></feComposite></filter><path d="M51.45 19.67L48.3 19.67L48.3 49.11L73.66 19.67L70.44 19.67L70.44 12.68L92.22 12.68L92.22 19.67L39.74 83.94L32.28 83.94L32.28 19.67L29.3 19.67L29.3 12.68L51.45 12.68L51.45 19.67Z" id="b4EUnn6v4" fill="white" fill-opacity="1" filter="url(#shadow14637881)"></path></g><use xlink:href="#bez1JFb5r" opacity="1" fill="#dbe7e0" fill-opacity="1"></use><g clip-path="url(#clipb2H74IgSLc)"><use xlink:href="#bez1JFb5r" opacity="1" fill-opacity="0" stroke="#2e2e2e" stroke-width="2" stroke-opacity="0.94"></use></g></g><g><g><filter id="shadow6165669" x="44.15" y="49.09" width="28.19" height="27.01" filterUnits="userSpaceOnUse" primitiveUnits="userSpaceOnUse"><feFlood></feFlood><feComposite in2="SourceAlpha" operator="in"></feComposite><feGaussianBlur stdDeviation="1"></feGaussianBlur><feOffset dx="2" dy="2" result="afterOffset"></feOffset><feFlood flood-color="#000000" flood-opacity="0.5"></feFlood><feComposite in2="afterOffset" operator="in"></feComposite><feMorphology operator="dilate" radius="1"></feMorphology><feComposite in2="SourceAlpha" operator="out"></feComposite></filter><path d="M60.35 59.09L59.13 64.1L54.15 64.1L55.41 59.09L60.35 59.09Z" id="gmUEK3PiI" fill="white" fill-opacity="1" filter="url(#shadow6165669)"></path></g><use xlink:href="#d3Ju5zVx3" opacity="1" fill="#dbe7e0" fill-opacity="1"></use><g><use xlink:href="#d3Ju5zVx3" opacity="1" fill-opacity="0" stroke="#2f2f2f" stroke-width="1" stroke-opacity="1"></use></g></g><g><g><filter id="shadow12080597" x="39.42" y="56.02" width="31.46" height="37.03" filterUnits="userSpaceOnUse" primitiveUnits="userSpaceOnUse"><feFlood></feFlood><feComposite in2="SourceAlpha" operator="in"></feComposite><feGaussianBlur stdDeviation="1"></feGaussianBlur><feOffset dx="2" dy="2" result="afterOffset"></feOffset><feFlood flood-color="#000000" flood-opacity="0.5"></feFlood><feComposite in2="afterOffset" operator="in"></feComposite><feMorphology operator="dilate" radius="1"></feMorphology><feComposite in2="SourceAlpha" operator="out"></feComposite></filter><path d="M57.65 77.94L56.79 81.05L49.43 81.05L52.74 68.82L50.88 68.82L51.87 66.02L58.89 66.02L55.72 77.94L57.65 77.94Z" id="cl9x4WGzc" fill="white" fill-opacity="1" filter="url(#shadow12080597)"></path></g><use xlink:href="#j4d7X9NE6" opacity="1" fill="#dbe7e0" fill-opacity="1"></use><g><use xlink:href="#j4d7X9NE6" opacity="1" fill-opacity="0" stroke="#2f2f2f" stroke-width="1" stroke-opacity="1"></use></g></g><g><g><filter id="shadow8261782" x="48.55" y="56.02" width="49.09" height="37.03" filterUnits="userSpaceOnUse" primitiveUnits="userSpaceOnUse"><feFlood></feFlood><feComposite in2="SourceAlpha" operator="in"></feComposite><feGaussianBlur stdDeviation="1"></feGaussianBlur><feOffset dx="2" dy="2" result="afterOffset"></feOffset><feFlood flood-color="#000000" flood-opacity="0.5"></feFlood><feComposite in2="afterOffset" operator="in"></feComposite><feMorphology operator="dilate" radius="1"></feMorphology><feComposite in2="SourceAlpha" operator="out"></feComposite></filter><path d="M58.55 81.05L65.3 81.05L66.33 78.24L64.55 78.24L66.61 72.06L70.26 72.06L67.08 81.05L74.49 81.05L75.33 78.24L73.64 78.24L75.71 72.06L79.17 72.06L76.46 81.05L84.24 81.05L85.08 78.24L82.83 78.24L85.64 68.03L84.24 66.02L78.33 66.02L77.21 68.03L76.08 66.02L70.26 66.02L68.76 68.03L67.08 66.02L60.99 66.02L59.76 69.72L62.21 69.72L58.55 81.05Z" id="bwlclmwJT" fill="white" fill-opacity="1" filter="url(#shadow8261782)"></path></g><use xlink:href="#dAGiV3da7" opacity="1" fill="#dbe7e0" fill-opacity="1"></use><g><use xlink:href="#dAGiV3da7" opacity="1" fill-opacity="0" stroke="#2f2f2f" stroke-width="1" stroke-opacity="1"></use></g></g></g></g></svg>